<svg xmlns="http://www.w3.org/2000/svg" viewBox="0 0 180 180" role="img" aria-labelledby="title desc">
  <title id="title">Roberts Family History icon</title>
  <desc id="desc">Simplified Welsh dragon emblem for the Roberts family history archive.</desc>
  <rect x="16" y="16" width="148" height="148" rx="22" ry="22" fill="#f3efe5" stroke="#d8cdb9" stroke-width="6"/>
  <g fill="none" stroke-linecap="round" stroke-linejoin="round">
    <path d="M42 130 L64 38 C72 44 84 58 98 68 C112 78 130 80 142 130" stroke="#315e52" stroke-width="18" />
    <path d="M142 130 L128 108 L150 98" stroke="#315e52" stroke-width="18" />
    <path d="M56 128 L80 126" stroke="#315e52" stroke-width="9" />
    <path d="M72 118 L80 92" stroke="#315e52" stroke-width="9" />
    <path d="M56 108 L42 118" stroke="#315e52" stroke-width="8" />
    <path d="M128 132 L120 118 L132 112" stroke="#315e52" stroke-width="8" />
    <path d="M76 52 C72 56 72 58 76 66" stroke="#315e52" stroke-width="8" />
    <path d="M124 58 L138 50" stroke="#315e52" stroke-width="7" />
  </g>
  <circle cx="78" cy="66" r="4" fill="#302c27" />
  <path d="M75 76 L78 70" stroke="#a8874e" stroke-width="4" />
  <path d="M82 116 L108 116" stroke="#e2ebe5" stroke-width="4" />
  <circle cx="112" cy="112" r="2.8" fill="#7b3f46" />
  <path d="M36 140 C78 136 116 136 144 138" stroke="#d8cdb9" stroke-width="3" />
</svg>
